<mxfile host="app.diagrams.net" modified="2021-02-15T10:12:23.387Z" agent="5.0 (Windows NT 10.0; Win64; x64) AppleWebKit/537.36 (KHTML, like Gecko) Chrome/88.0.4324.150 Safari/537.36" etag="epiFtk0O7Z_Pd9b4JeR1" version="14.3.1" type="github">
  <diagram id="y1kJHH9e92b12_6vBgDI" name="Page-1">
    <mxGraphModel dx="965" dy="1582" grid="1" gridSize="10" guides="1" tooltips="1" connect="1" arrows="1" fold="1" page="1" pageScale="1" pageWidth="850" pageHeight="1100" math="0" shadow="0">
      <root>
        <mxCell id="0" />
        <mxCell id="1" parent="0" />
        <mxCell id="uQu4CCQUiUPOoRhyfrip-21" style="edgeStyle=orthogonalEdgeStyle;rounded=0;orthogonalLoop=1;jettySize=auto;html=1;entryX=0;entryY=0.5;entryDx=0;entryDy=0;startArrow=none;startFill=0;endArrow=openThin;endFill=0;" edge="1" parent="1" source="uQu4CCQUiUPOoRhyfrip-1" target="uQu4CCQUiUPOoRhyfrip-12">
          <mxGeometry relative="1" as="geometry" />
        </mxCell>
        <mxCell id="uQu4CCQUiUPOoRhyfrip-22" style="edgeStyle=orthogonalEdgeStyle;rounded=0;orthogonalLoop=1;jettySize=auto;html=1;entryX=0;entryY=0.5;entryDx=0;entryDy=0;startArrow=none;startFill=0;endArrow=openThin;endFill=0;" edge="1" parent="1" source="uQu4CCQUiUPOoRhyfrip-1" target="uQu4CCQUiUPOoRhyfrip-13">
          <mxGeometry relative="1" as="geometry" />
        </mxCell>
        <mxCell id="uQu4CCQUiUPOoRhyfrip-39" style="edgeStyle=orthogonalEdgeStyle;rounded=0;orthogonalLoop=1;jettySize=auto;html=1;entryX=0;entryY=0.5;entryDx=0;entryDy=0;startArrow=none;startFill=0;endArrow=openThin;endFill=0;" edge="1" parent="1" source="uQu4CCQUiUPOoRhyfrip-1" target="uQu4CCQUiUPOoRhyfrip-23">
          <mxGeometry relative="1" as="geometry" />
        </mxCell>
        <mxCell id="uQu4CCQUiUPOoRhyfrip-43" style="edgeStyle=orthogonalEdgeStyle;rounded=0;orthogonalLoop=1;jettySize=auto;html=1;entryX=0;entryY=0.5;entryDx=0;entryDy=0;startArrow=none;startFill=0;endArrow=openThin;endFill=0;" edge="1" parent="1" source="uQu4CCQUiUPOoRhyfrip-1" target="uQu4CCQUiUPOoRhyfrip-41">
          <mxGeometry relative="1" as="geometry" />
        </mxCell>
        <mxCell id="uQu4CCQUiUPOoRhyfrip-47" style="edgeStyle=orthogonalEdgeStyle;rounded=0;orthogonalLoop=1;jettySize=auto;html=1;entryX=0;entryY=0.5;entryDx=0;entryDy=0;startArrow=none;startFill=0;endArrow=openThin;endFill=0;" edge="1" parent="1" source="uQu4CCQUiUPOoRhyfrip-1" target="uQu4CCQUiUPOoRhyfrip-46">
          <mxGeometry relative="1" as="geometry" />
        </mxCell>
        <mxCell id="uQu4CCQUiUPOoRhyfrip-1" value="Admin" style="shape=umlActor;verticalLabelPosition=bottom;verticalAlign=top;html=1;outlineConnect=0;" vertex="1" parent="1">
          <mxGeometry x="120" y="-40" width="30" height="60" as="geometry" />
        </mxCell>
        <mxCell id="uQu4CCQUiUPOoRhyfrip-33" style="edgeStyle=orthogonalEdgeStyle;rounded=0;orthogonalLoop=1;jettySize=auto;html=1;entryX=0;entryY=0.5;entryDx=0;entryDy=0;startArrow=none;startFill=0;endArrow=openThin;endFill=0;" edge="1" parent="1" source="uQu4CCQUiUPOoRhyfrip-2" target="uQu4CCQUiUPOoRhyfrip-24">
          <mxGeometry relative="1" as="geometry" />
        </mxCell>
        <mxCell id="uQu4CCQUiUPOoRhyfrip-34" style="edgeStyle=orthogonalEdgeStyle;rounded=0;orthogonalLoop=1;jettySize=auto;html=1;entryX=0;entryY=0.5;entryDx=0;entryDy=0;startArrow=none;startFill=0;endArrow=openThin;endFill=0;" edge="1" parent="1" source="uQu4CCQUiUPOoRhyfrip-2" target="uQu4CCQUiUPOoRhyfrip-25">
          <mxGeometry relative="1" as="geometry" />
        </mxCell>
        <mxCell id="uQu4CCQUiUPOoRhyfrip-35" style="edgeStyle=orthogonalEdgeStyle;rounded=0;orthogonalLoop=1;jettySize=auto;html=1;entryX=0;entryY=0.5;entryDx=0;entryDy=0;startArrow=none;startFill=0;endArrow=openThin;endFill=0;" edge="1" parent="1" source="uQu4CCQUiUPOoRhyfrip-2" target="uQu4CCQUiUPOoRhyfrip-26">
          <mxGeometry relative="1" as="geometry" />
        </mxCell>
        <mxCell id="uQu4CCQUiUPOoRhyfrip-36" style="edgeStyle=orthogonalEdgeStyle;rounded=0;orthogonalLoop=1;jettySize=auto;html=1;entryX=0;entryY=0.5;entryDx=0;entryDy=0;startArrow=none;startFill=0;endArrow=openThin;endFill=0;" edge="1" parent="1" source="uQu4CCQUiUPOoRhyfrip-2" target="uQu4CCQUiUPOoRhyfrip-27">
          <mxGeometry relative="1" as="geometry" />
        </mxCell>
        <mxCell id="uQu4CCQUiUPOoRhyfrip-37" style="edgeStyle=orthogonalEdgeStyle;rounded=0;orthogonalLoop=1;jettySize=auto;html=1;entryX=0;entryY=0.5;entryDx=0;entryDy=0;startArrow=none;startFill=0;endArrow=openThin;endFill=0;" edge="1" parent="1" source="uQu4CCQUiUPOoRhyfrip-2" target="uQu4CCQUiUPOoRhyfrip-32">
          <mxGeometry relative="1" as="geometry" />
        </mxCell>
        <mxCell id="uQu4CCQUiUPOoRhyfrip-2" value="User" style="shape=umlActor;verticalLabelPosition=bottom;verticalAlign=top;html=1;outlineConnect=0;" vertex="1" parent="1">
          <mxGeometry x="120" y="330" width="30" height="60" as="geometry" />
        </mxCell>
        <mxCell id="uQu4CCQUiUPOoRhyfrip-49" style="edgeStyle=orthogonalEdgeStyle;rounded=0;orthogonalLoop=1;jettySize=auto;html=1;entryX=1;entryY=0.5;entryDx=0;entryDy=0;startArrow=none;startFill=0;endArrow=openThin;endFill=0;" edge="1" parent="1" source="uQu4CCQUiUPOoRhyfrip-7" target="uQu4CCQUiUPOoRhyfrip-46">
          <mxGeometry relative="1" as="geometry" />
        </mxCell>
        <mxCell id="uQu4CCQUiUPOoRhyfrip-50" style="edgeStyle=orthogonalEdgeStyle;rounded=0;orthogonalLoop=1;jettySize=auto;html=1;entryX=1;entryY=0.5;entryDx=0;entryDy=0;startArrow=none;startFill=0;endArrow=openThin;endFill=0;" edge="1" parent="1" source="uQu4CCQUiUPOoRhyfrip-7" target="uQu4CCQUiUPOoRhyfrip-41">
          <mxGeometry relative="1" as="geometry" />
        </mxCell>
        <mxCell id="uQu4CCQUiUPOoRhyfrip-7" value="Master" style="shape=umlActor;verticalLabelPosition=bottom;verticalAlign=top;html=1;outlineConnect=0;" vertex="1" parent="1">
          <mxGeometry x="780" y="-200" width="30" height="60" as="geometry" />
        </mxCell>
        <mxCell id="uQu4CCQUiUPOoRhyfrip-38" style="edgeStyle=orthogonalEdgeStyle;rounded=0;orthogonalLoop=1;jettySize=auto;html=1;entryX=0.021;entryY=0.657;entryDx=0;entryDy=0;entryPerimeter=0;startArrow=none;startFill=0;endArrow=openThin;endFill=0;" edge="1" parent="1" source="uQu4CCQUiUPOoRhyfrip-8" target="uQu4CCQUiUPOoRhyfrip-32">
          <mxGeometry relative="1" as="geometry" />
        </mxCell>
        <mxCell id="uQu4CCQUiUPOoRhyfrip-8" value="Guest" style="shape=umlActor;verticalLabelPosition=bottom;verticalAlign=top;html=1;outlineConnect=0;" vertex="1" parent="1">
          <mxGeometry x="120" y="530" width="30" height="60" as="geometry" />
        </mxCell>
        <mxCell id="uQu4CCQUiUPOoRhyfrip-12" value="Add repair record" style="ellipse;whiteSpace=wrap;html=1;" vertex="1" parent="1">
          <mxGeometry x="355" y="-80" width="140" height="70" as="geometry" />
        </mxCell>
        <mxCell id="uQu4CCQUiUPOoRhyfrip-13" value="Manage repair record" style="ellipse;whiteSpace=wrap;html=1;" vertex="1" parent="1">
          <mxGeometry x="355" width="140" height="70" as="geometry" />
        </mxCell>
        <mxCell id="uQu4CCQUiUPOoRhyfrip-14" value="Edit repair record" style="ellipse;whiteSpace=wrap;html=1;" vertex="1" parent="1">
          <mxGeometry x="550" y="-40" width="140" height="70" as="geometry" />
        </mxCell>
        <mxCell id="uQu4CCQUiUPOoRhyfrip-15" value="Delete repair record" style="ellipse;whiteSpace=wrap;html=1;" vertex="1" parent="1">
          <mxGeometry x="550" y="60" width="140" height="70" as="geometry" />
        </mxCell>
        <mxCell id="uQu4CCQUiUPOoRhyfrip-17" value="" style="endArrow=none;startArrow=block;html=1;endFill=0;entryX=0;entryY=0.5;entryDx=0;entryDy=0;startFill=0;" edge="1" parent="1" target="uQu4CCQUiUPOoRhyfrip-14">
          <mxGeometry width="50" height="50" relative="1" as="geometry">
            <mxPoint x="500" y="30" as="sourcePoint" />
            <mxPoint x="530" y="-40" as="targetPoint" />
          </mxGeometry>
        </mxCell>
        <mxCell id="uQu4CCQUiUPOoRhyfrip-18" value="" style="endArrow=none;startArrow=block;html=1;endFill=0;entryX=0;entryY=0.5;entryDx=0;entryDy=0;startFill=0;exitX=1;exitY=0.5;exitDx=0;exitDy=0;" edge="1" parent="1" source="uQu4CCQUiUPOoRhyfrip-13" target="uQu4CCQUiUPOoRhyfrip-15">
          <mxGeometry width="50" height="50" relative="1" as="geometry">
            <mxPoint x="490" y="20" as="sourcePoint" />
            <mxPoint x="570" y="-15" as="targetPoint" />
          </mxGeometry>
        </mxCell>
        <mxCell id="uQu4CCQUiUPOoRhyfrip-23" value="Logout" style="ellipse;whiteSpace=wrap;html=1;" vertex="1" parent="1">
          <mxGeometry x="355" y="80" width="140" height="70" as="geometry" />
        </mxCell>
        <mxCell id="uQu4CCQUiUPOoRhyfrip-24" value="Registration" style="ellipse;whiteSpace=wrap;html=1;" vertex="1" parent="1">
          <mxGeometry x="355" y="190" width="140" height="70" as="geometry" />
        </mxCell>
        <mxCell id="uQu4CCQUiUPOoRhyfrip-25" value="Login" style="ellipse;whiteSpace=wrap;html=1;" vertex="1" parent="1">
          <mxGeometry x="355" y="270" width="140" height="70" as="geometry" />
        </mxCell>
        <mxCell id="uQu4CCQUiUPOoRhyfrip-26" value="Logout" style="ellipse;whiteSpace=wrap;html=1;" vertex="1" parent="1">
          <mxGeometry x="355" y="350" width="140" height="70" as="geometry" />
        </mxCell>
        <mxCell id="uQu4CCQUiUPOoRhyfrip-27" value="Manage profile" style="ellipse;whiteSpace=wrap;html=1;" vertex="1" parent="1">
          <mxGeometry x="355" y="430" width="140" height="70" as="geometry" />
        </mxCell>
        <mxCell id="uQu4CCQUiUPOoRhyfrip-28" value="Edit profile" style="ellipse;whiteSpace=wrap;html=1;" vertex="1" parent="1">
          <mxGeometry x="550" y="380" width="140" height="70" as="geometry" />
        </mxCell>
        <mxCell id="uQu4CCQUiUPOoRhyfrip-29" value="Delete profile" style="ellipse;whiteSpace=wrap;html=1;" vertex="1" parent="1">
          <mxGeometry x="550" y="490" width="140" height="70" as="geometry" />
        </mxCell>
        <mxCell id="uQu4CCQUiUPOoRhyfrip-30" value="" style="endArrow=none;startArrow=block;html=1;endFill=0;entryX=0;entryY=0.5;entryDx=0;entryDy=0;startFill=0;" edge="1" parent="1" target="uQu4CCQUiUPOoRhyfrip-28">
          <mxGeometry width="50" height="50" relative="1" as="geometry">
            <mxPoint x="500" y="460" as="sourcePoint" />
            <mxPoint x="530" y="390" as="targetPoint" />
          </mxGeometry>
        </mxCell>
        <mxCell id="uQu4CCQUiUPOoRhyfrip-31" value="" style="endArrow=none;startArrow=block;html=1;endFill=0;entryX=0;entryY=0.5;entryDx=0;entryDy=0;startFill=0;exitX=1;exitY=0.5;exitDx=0;exitDy=0;" edge="1" parent="1" source="uQu4CCQUiUPOoRhyfrip-27" target="uQu4CCQUiUPOoRhyfrip-29">
          <mxGeometry width="50" height="50" relative="1" as="geometry">
            <mxPoint x="490" y="450" as="sourcePoint" />
            <mxPoint x="570" y="415" as="targetPoint" />
          </mxGeometry>
        </mxCell>
        <mxCell id="uQu4CCQUiUPOoRhyfrip-32" value="Create repair request" style="ellipse;whiteSpace=wrap;html=1;" vertex="1" parent="1">
          <mxGeometry x="355" y="515" width="140" height="70" as="geometry" />
        </mxCell>
        <mxCell id="uQu4CCQUiUPOoRhyfrip-41" value="Login" style="ellipse;whiteSpace=wrap;html=1;" vertex="1" parent="1">
          <mxGeometry x="355" y="-160" width="140" height="70" as="geometry" />
        </mxCell>
        <mxCell id="uQu4CCQUiUPOoRhyfrip-46" value="Set day off" style="ellipse;whiteSpace=wrap;html=1;" vertex="1" parent="1">
          <mxGeometry x="355" y="-250" width="140" height="70" as="geometry" />
        </mxCell>
      </root>
    </mxGraphModel>
  </diagram>
</mxfile>
